<svg id="Layer_1" height="512" viewBox="0 0 512 512" width="512" xmlns="http://www.w3.org/2000/svg" data-name="Layer 1"><path d="m50.8 387.908h6.981a41.858 41.858 0 0 0 41.2 34.8h2.3a41.858 41.858 0 0 0 41.2 34.8h51.7a52.129 52.129 0 0 0 51.476-44.336c3.422.27 6.862.423 10.292.423 3.485 0 6.947-.155 10.387-.433a52.145 52.145 0 0 0 51.49 44.346h51.694a41.858 41.858 0 0 0 41.2-34.8h2.3a41.858 41.858 0 0 0 41.2-34.8h6.98a41.845 41.845 0 0 0 41.8-41.8 7 7 0 0 0 -7-7h-109.954a69.687 69.687 0 0 0 -14 1.433 127.632 127.632 0 0 0 7.67-20.118 37.449 37.449 0 0 0 0-71.167 128.789 128.789 0 0 0 -247.541.039 37.442 37.442 0 0 0 0 71.089 128.027 128.027 0 0 0 7.652 20.133 69.664 69.664 0 0 0 -13.877-1.409h-109.95a7 7 0 0 0 -7 7 41.845 41.845 0 0 0 41.8 41.8zm437.309-34.8a27.845 27.845 0 0 1 -26.905 20.8h-48.72a7 7 0 0 0 0 14h27.441a27.847 27.847 0 0 1 -26.9 20.8h-48.725a7 7 0 0 0 0 14h32.124a27.848 27.848 0 0 1 -26.905 20.8h-51.691a38.125 38.125 0 0 1 -37.617-32.225 128.806 128.806 0 0 0 80.989-52.295 55.779 55.779 0 0 1 24.842-5.878zm-367.609-68.266a23.474 23.474 0 0 1 18.767-22.967 7 7 0 0 0 5.407-5.154 114.782 114.782 0 0 1 222.547-.022 7 7 0 0 0 5.428 5.156 23.441 23.441 0 0 1 0 45.972 7 7 0 0 0 -5.428 5.157 113.837 113.837 0 0 1 -16.5 36.576c-.028.041-.058.08-.085.121a114.793 114.793 0 0 1 -94.689 49.911 116.623 116.623 0 0 1 -15.765-1.072 114.01 114.01 0 0 1 -60.982-28.367 115.365 115.365 0 0 1 -18-20.561l-.048-.07a113.941 113.941 0 0 1 -16.478-36.56 7 7 0 0 0 -5.407-5.154 23.475 23.475 0 0 1 -18.767-22.966zm5.45 68.268a55.772 55.772 0 0 1 24.669 5.792 129.5 129.5 0 0 0 19.213 21.656 127.927 127.927 0 0 0 61.947 30.748 38.11 38.11 0 0 1 -37.6 32.2h-51.7a27.848 27.848 0 0 1 -26.905-20.8h32.126a7 7 0 0 0 0-14h-48.721a27.847 27.847 0 0 1 -26.9-20.8h27.437a7 7 0 1 0 0-14h-48.716a27.845 27.845 0 0 1 -26.9-20.8z"/><path d="m308.445 300.908a7 7 0 0 0 -7 7 45.445 45.445 0 1 1 -90.89 0 7 7 0 0 0 -14 0 59.445 59.445 0 1 0 118.89 0 7 7 0 0 0 -7-7z"/><path d="m208.927 224.1a6.98 6.98 0 0 0 4.95-2.051l23.295-23.3a7 7 0 0 0 -9.9-9.9l-23.294 23.3a7 7 0 0 0 4.95 11.95z"/><path d="m237.577 222.05a7 7 0 0 0 9.9 0l23.294-23.3a7 7 0 1 0 -9.9-9.9l-23.3 23.3a7 7 0 0 0 .006 9.9z"/><path d="m271.177 222.05a7 7 0 0 0 9.9 0l23.3-23.3a7 7 0 1 0 -9.9-9.9l-23.295 23.3a7 7 0 0 0 -.005 9.9z"/><path d="m183.087 286.216a7 7 0 0 0 7-7 13.467 13.467 0 1 1 26.934 0 7 7 0 0 0 14 0 27.467 27.467 0 1 0 -54.934 0 7 7 0 0 0 7 7z"/><path d="m280.979 279.216a7 7 0 0 0 14 0 13.467 13.467 0 1 1 26.934 0 7 7 0 0 0 14 0 27.467 27.467 0 1 0 -54.934 0z"/><path d="m148.551 94.388c0 8.517 5.845 20.618 33.688 29.9 19.333 6.444 44.9 9.993 71.99 9.993s52.656-3.549 71.989-9.993c27.844-9.281 33.688-21.382 33.688-29.9s-5.844-20.618-33.688-29.9c-19.333-6.444-44.9-9.993-71.989-9.993s-52.657 3.549-71.99 9.993c-27.839 9.282-33.688 21.383-33.688 29.9zm197.355 0c0 9.036-31.486 25.892-91.677 25.892s-91.678-16.856-91.678-25.892 31.486-25.888 91.678-25.888 91.677 16.852 91.677 25.888z"/></svg>