<svg id="Layer_1" enable-background="new 0 0 512 512" height="512" viewBox="0 0 512 512" width="512" xmlns="http://www.w3.org/2000/svg"><path d="m512 88.001c0-8.836-7.164-16-16-16h-32c-76.721 0-139.615 60.311-143.775 136.011-23.636-.29-47.134 9.186-64.225 26.635-16.644-16.993-39.739-26.843-64.225-26.636-4.161-75.7-67.055-136.01-143.775-136.01h-32c-8.836 0-16 7.164-16 16 0 22.88 9.656 43.549 25.106 58.144-.714 1.814-1.106 3.789-1.106 5.856 0 22.88 9.656 43.549 25.106 58.144-.714 1.814-1.106 3.789-1.106 5.856 0 35.544 23.253 66.071 56.082 76.339-1.41 34.048 16.907 64.327 40.565 89.054 28.147 29.431 72.1 58.064 104.628 73.125 4.258 1.972 9.176 1.98 13.45 0 1.453-.673 35.981-16.788 70.964-43.411 38.74-29.482 76.207-70.147 74.221-118.766 32.802-10.257 56.09-40.762 56.09-76.342 0-2.067-.392-4.042-1.106-5.856 15.45-14.594 25.106-35.263 25.106-58.143 0-2.067-.392-4.042-1.106-5.856 15.45-14.595 25.106-35.264 25.106-58.144zm-429.305 144h21.305c8.836 0 16-7.164 16-16s-7.164-16-16-16c-20.86 0-38.655-13.375-45.258-32h21.258c8.836 0 16-7.164 16-16s-7.164-16-16-16c-20.86 0-38.655-13.375-45.258-32h13.258c61.143 0 110.992 49.252 111.977 110.165-21.797 8.597-39.367 25.563-48.687 46.884-13.454-4.929-23.908-15.627-28.595-29.049zm173.299 190.151c-46.373-23.748-119.994-73.778-119.994-126.151 0-30.878 25.361-56 56.533-56 20.568 0 39.534 11.083 49.497 28.926 6.092 10.908 21.838 10.926 27.939 0 9.951-17.82 29.213-29.399 50.942-28.903 30.59.759 55.088 25.518 55.088 55.977.001 52.237-73.286 102.197-120.005 126.151zm176.006-286.151c-8.836 0-16 7.164-16 16s7.164 16 16 16h21.258c-6.604 18.625-24.398 32-45.258 32-8.836 0-16 7.164-16 16s7.164 16 16 16h21.305c-4.683 13.412-15.125 24.103-28.565 29.037-9.223-21.172-26.681-38.226-48.717-46.872.985-60.913 50.833-110.165 111.977-110.165h13.258c-6.603 18.625-24.398 32-45.258 32z"/><path d="m203.59 140.939c29.489 14.745 75.305 14.758 104.82 0 36.867-18.434 36.936-55.408 0-73.877-29.489-14.745-75.305-14.758-104.82 0-36.868 18.435-36.936 55.409 0 73.877zm14.31-45.255c20.473-10.236 55.731-10.234 76.199 0 8.179 4.09 9.9 7.763 9.9 8.317s-1.721 4.227-9.9 8.317c-20.473 10.236-55.731 10.234-76.199 0-8.179-4.09-9.9-7.763-9.9-8.317s1.721-4.227 9.9-8.317z"/></svg>