<?xml version="1.0"?>
<svg xmlns="http://www.w3.org/2000/svg" viewBox="0 0 64 64" width="512" height="512"><g id="Outline"><g><path d="M40.479,40.214l2.2.735a1,1,0,0,0,.632,0l2.2-.735A6.544,6.544,0,0,0,50,34a1,1,0,0,0-1.316-.949L43,34.946l-5.684-1.895A1,1,0,0,0,36,34,6.544,6.544,0,0,0,40.479,40.214Zm2.2-3.265a1,1,0,0,0,.632,0l4.442-1.481a4.544,4.544,0,0,1-2.869,2.848L43,38.946l-1.889-.63a4.544,4.544,0,0,1-2.869-2.848Z"/><path d="M51,43H49.9a13,13,0,0,0,5.983-9.321l.158-.079A7.132,7.132,0,0,0,60,27.188a5.119,5.119,0,0,1,.37-1.919l1.559-3.9a1,1,0,0,0-1.171-1.342,13.133,13.133,0,0,0-5.2,2.632c-.079-.295-.164-.589-.264-.879a1,1,0,0,0-1.891.655A10.827,10.827,0,0,1,54,26v6a11,11,0,0,1-22,0V30a1,1,0,0,0-2,0v1.258a5.126,5.126,0,0,1-2-4.07,7.14,7.14,0,0,0-.513-2.663l-.741-1.853a11.2,11.2,0,0,1,3.291,2.347c-.024.325-.037.652-.037.981a1,1,0,0,0,2,0,10.939,10.939,0,0,1,1.262-5.1,4.031,4.031,0,0,0,5.954-5.216,10.975,10.975,0,0,1,6.708-.271,4.064,4.064,0,0,0,6.252,5.13l2.635-2.635A4.039,4.039,0,0,0,55.9,14.121L53.277,2.775a1,1,0,0,0-1.969.125l-.843,8.43a2.065,2.065,0,0,1-1.028,1.585l-1.731.989a12.962,12.962,0,0,0-9.983.247l-.011-.008-2.149-1.228a2.065,2.065,0,0,1-1.028-1.585L33.692,2.9a1,1,0,0,0-1.969-.125L29.1,14.122a4.037,4.037,0,0,0,1.085,3.785l1.571,1.571a12.877,12.877,0,0,0-1.317,3.184,13.143,13.143,0,0,0-5.2-2.632,1,1,0,0,0-1.171,1.342l1.56,3.9A5.138,5.138,0,0,1,26,27.188,7.132,7.132,0,0,0,29.963,33.6l.158.079A13,13,0,0,0,36.1,43H35A11.013,11.013,0,0,0,24,54v7a1,1,0,0,0,2,0V54a9.01,9.01,0,0,1,9-9H51a9.01,9.01,0,0,1,9,9v7a1,1,0,0,0,2,0V54A11.013,11.013,0,0,0,51,43Zm8.254-20.328-.74,1.853A7.121,7.121,0,0,0,58,27.188a5.126,5.126,0,0,1-2,4.07V26c0-.328-.016-.653-.04-.978A11.219,11.219,0,0,1,59.254,22.672Zm-8.825-8.02a4.073,4.073,0,0,0,2.026-3.123l.238-2.389,1.254,5.431a2.051,2.051,0,0,1-.551,1.922l-2.634,2.635a2.063,2.063,0,1,1-2.482-3.249l.017-.01h0Zm-19.376-.081L32.307,9.14l.238,2.389a4.07,4.07,0,0,0,2.026,3.122l2.149,1.228a2.063,2.063,0,1,1-2.482,3.249L31.6,16.493A2.051,2.051,0,0,1,31.053,14.571Z"/><path d="M33,54a1,1,0,0,0-1,1v6a1,1,0,0,0,2,0V55A1,1,0,0,0,33,54Z"/><path d="M54,54a1,1,0,0,0-1,1v6a1,1,0,0,0,2,0V55A1,1,0,0,0,54,54Z"/><path d="M41.707,50.293l-2-2A1,1,0,0,0,39,48H34a1,1,0,0,0,0,2h4.586l1.707,1.707a1,1,0,0,0,1.414-1.414Z"/><path d="M52,48H47a1,1,0,0,0-.707.293l-2,2a1,1,0,1,0,1.414,1.414L47.414,50H52a1,1,0,0,0,0-2Z"/><path d="M43,53a1,1,0,0,0-1,1v4a1,1,0,0,0,2,0V54A1,1,0,0,0,43,53Z"/><path d="M37.941,31.53a3.989,3.989,0,0,0,3.271-1.939l.645-1.077a1,1,0,0,0-.615-1.484l-8-2a1,1,0,0,0-1.055,1.551l2.34,3.277a3.986,3.986,0,0,0,3.252,1.675Q37.86,31.533,37.941,31.53ZM36.154,28.7l-.761-1.067,4.053,1.014a2,2,0,0,1-3.292.053Z"/><path d="M52.758,25.03l-8,2a1,1,0,0,0-.615,1.484l.645,1.077a3.989,3.989,0,0,0,3.271,1.939q.081,0,.162,0a3.986,3.986,0,0,0,3.252-1.675l2.34-3.277a.988.988,0,0,0,.187-.57,1,1,0,0,0-1.242-.981ZM49.846,28.7a1.942,1.942,0,0,1-1.707.836,1.963,1.963,0,0,1-1.585-.888l4.053-1.014Z"/><path d="M43,19a1,1,0,0,0-1,1v4a1,1,0,0,0,2,0V20A1,1,0,0,0,43,19Z"/><path d="M11,40H7a3,3,0,0,1-3-3V31a1,1,0,0,0-2,0v6a5.006,5.006,0,0,0,5,5h3V61a1,1,0,0,0,2,0V41A1,1,0,0,0,11,40Z"/><path d="M14,33a1,1,0,0,0,2,0V27a1,1,0,0,0-.105-.447l-2-4a1.042,1.042,0,0,0-1.79,0l-2,4A1,1,0,0,0,10,27v9H8V27a1,1,0,0,0-.105-.447l-2-4a1.042,1.042,0,0,0-1.79,0l-2,4a1,1,0,1,0,1.79.894L5,25.236l1,2V37a1,1,0,0,0,1,1h4a1,1,0,0,0,1-1V27.236l1-2,1,2Z"/><path d="M24,27a1,1,0,0,0-.105-.447l-2-4a1.042,1.042,0,0,0-1.79,0l-2,4A1,1,0,0,0,18,27v9H15a1,1,0,0,0,0,2h4a1,1,0,0,0,1-1V27.236l1-2,1,2V37a3,3,0,0,1-3,3H15a1,1,0,0,0-1,1V61a1,1,0,0,0,2,0V42h3a5.006,5.006,0,0,0,5-5Z"/></g></g></svg>
