<?xml version="1.0" encoding="iso-8859-1"?>
<!-- Generator: Adobe Illustrator 18.0.0, SVG Export Plug-In . SVG Version: 6.00 Build 0)  -->
<!DOCTYPE svg PUBLIC "-//W3C//DTD SVG 1.1//EN" "http://www.w3.org/Graphics/SVG/1.1/DTD/svg11.dtd">
<svg version="1.1" id="Capa_1" xmlns="http://www.w3.org/2000/svg" xmlns:xlink="http://www.w3.org/1999/xlink" x="0px" y="0px"
	 viewBox="0 0 465.057 465.057" style="enable-background:new 0 0 465.057 465.057;" xml:space="preserve">
<path d="M329.277,104.984l-24.814-71.551c-0.697-2.011-2.592-3.36-4.719-3.362c-2.129-0.002-4.025,1.345-4.727,3.354l-24.945,71.507
	c-0.653,1.871-0.139,3.952,1.312,5.304c1.448,1.351,3.56,1.72,5.382,0.938l8.822-3.788c0,0-0.012,27.24-0.011,27.286
	c-0.081,24.391-16.132,45.095-38.97,51.337V77.326l8.816,3.795c1.821,0.783,3.933,0.418,5.383-0.933
	c1.451-1.351,1.968-3.431,1.316-5.303L237.244,3.357C236.545,1.348,234.649,0,232.521,0s-4.023,1.348-4.723,3.357l-24.882,71.528
	c-0.651,1.872-0.135,3.952,1.316,5.303c1.45,1.35,3.561,1.715,5.383,0.933l8.819-3.796v108.726
	c-22.885-6.257-38.951-27.032-38.97-51.477c0-0.014,0.004-27.191,0.004-27.191l8.817,3.795c1.822,0.783,3.932,0.418,5.383-0.933
	c1.451-1.351,1.968-3.431,1.316-5.303l-24.878-71.529c-0.699-2.01-2.595-3.357-4.723-3.357c-2.128,0-4.023,1.348-4.723,3.357
	l-24.882,71.529c-0.651,1.872-0.135,3.952,1.316,5.303c1.45,1.35,3.56,1.716,5.383,0.933l8.818-3.795c0,0,0.029,30.068,0.041,30.204
	c0.193,39.343,28.673,72.668,67.096,79.364c-0.001,32.171-0.008,234.042-0.008,234.066c0,7.74,6.323,14.038,14.095,14.038
	s14.095-6.298,14.095-14.038c0-0.03-0.008-202.073-0.01-234.107c38.536-6.707,67.09-40.193,67.125-79.7l0.026-29.8l8.813,3.803
	c1.82,0.785,3.932,0.422,5.384-0.928C329.408,108.938,329.927,106.857,329.277,104.984z M310.746,95.221
	c-1.542-0.665-3.319-0.513-4.726,0.411c-1.406,0.924-2.253,2.493-2.255,4.175l-0.033,37.396
	c-0.032,35.964-27.025,66.248-62.787,70.444c-2.742,0.323-4.705,2.807-4.384,5.549c0.009,0.074,0.034,0.143,0.046,0.215
	c0,14.639,0.005,237.641,0.005,237.656c-0.026,2.204-1.849,3.99-4.09,3.99c-2.244,0-4.069-1.791-4.091-4
	c0-0.013,0.004-238.409,0.004-238.409h-0.021c0.002-2.5-1.842-4.665-4.386-4.967c-35.744-4.239-62.698-34.546-62.698-70.497
	c0-0.106-0.031-37.396-0.031-37.396c0-1.682-0.846-3.251-2.251-4.177c-1.404-0.924-3.181-1.08-4.726-0.416l-5.365,2.31
	l16.429-47.229l16.426,47.229l-5.365-2.31c-1.544-0.664-3.321-0.508-4.726,0.416c-1.405,0.926-2.251,2.495-2.251,4.177
	c0,0-0.005,34.729-0.005,34.746c0.001,15.198,5.429,29.9,15.285,41.397c9.758,11.382,23.22,18.931,37.906,21.254
	c0.265,0.042,0.527,0.063,0.787,0.063c2.417,0,4.933-1.643,4.933-4.22c0-0.269,0.06-123.298,0.06-123.298
	c0-1.682-0.846-3.251-2.251-4.176c-1.404-0.926-3.182-1.081-4.726-0.417l-5.366,2.309l16.429-47.227l16.426,47.226l-5.363-2.308
	c-1.543-0.663-3.32-0.509-4.726,0.416c-1.405,0.925-2.251,2.495-2.251,4.177c0,0,0.001,122.777,0.001,123.257
	c0,2.977,2.511,4.224,4.929,4.225c0.259,0,0.523-0.02,0.786-0.063c14.691-2.308,28.163-9.844,37.933-21.217
	c9.869-11.488,15.31-26.188,15.324-41.389c0-0.057,0.015-34.746,0.015-34.746c0.002-1.682-0.843-3.251-2.247-4.178
	c-1.403-0.927-3.18-1.084-4.725-0.421l-5.369,2.305l16.472-47.214l16.383,47.242L310.746,95.221z"/>
<g>
</g>
<g>
</g>
<g>
</g>
<g>
</g>
<g>
</g>
<g>
</g>
<g>
</g>
<g>
</g>
<g>
</g>
<g>
</g>
<g>
</g>
<g>
</g>
<g>
</g>
<g>
</g>
<g>
</g>
</svg>
