<?xml version="1.0" standalone="no"?>
<!DOCTYPE svg PUBLIC "-//W3C//DTD SVG 20010904//EN"
 "http://www.w3.org/TR/2001/REC-SVG-20010904/DTD/svg10.dtd">
<svg version="1.0" xmlns="http://www.w3.org/2000/svg"
 width="300.000000pt" height="300.000000pt" viewBox="0 0 300.000000 300.000000"
 preserveAspectRatio="xMidYMid meet">
<metadata>
Created by potrace 1.10, written by Peter Selinger 2001-2011
</metadata>
<g transform="translate(0.000000,300.000000) scale(0.100000,-0.100000)"
fill="#000000" stroke="none">
<path d="M1557 2632 c-38 -95 -62 -204 -55 -253 3 -17 0 -33 -6 -35 -6 -2
-105 -17 -220 -33 -114 -17 -210 -32 -213 -35 -5 -4 -28 -219 -36 -338 l-5
-68 244 0 244 0 0 -51 0 -51 -132 7 c-73 3 -177 11 -231 16 -55 5 -104 6 -111
1 -7 -4 -79 -76 -161 -160 l-150 -154 30 -21 c17 -12 93 -76 170 -141 77 -66
147 -125 155 -132 12 -9 60 -8 220 6 113 10 207 17 209 15 2 -2 6 -136 10
-297 6 -292 6 -293 -18 -373 l-25 -80 -12 53 c-7 29 -20 110 -30 180 -10 70
-22 132 -27 137 -6 6 -8 1 -4 -15 4 -14 10 -106 13 -204 7 -168 6 -179 -10
-173 -10 4 -27 7 -37 7 -16 0 -32 24 -71 107 -29 59 -53 103 -54 98 -1 -6 -12
-47 -24 -91 l-22 -81 -37 8 c-38 9 -211 -18 -211 -33 0 -4 18 -26 39 -48 l40
-42 335 3 c185 2 336 7 336 11 0 4 -4 10 -10 13 -5 3 -10 47 -10 97 0 49 -7
194 -15 322 -25 392 -26 416 -18 416 5 0 105 9 223 20 118 11 220 20 227 20
14 0 11 39 -23 263 -13 88 -24 169 -24 182 0 13 -4 26 -8 29 -4 2 -97 10 -207
16 -110 6 -201 13 -203 14 -1 2 -5 26 -9 54 l-6 52 254 2 253 3 93 130 c51 72
96 136 99 143 13 27 -8 59 -63 96 -32 21 -98 69 -148 106 l-90 67 -190 -28
c-104 -15 -197 -28 -205 -28 -13 -1 -16 26 -19 177 -1 97 -4 178 -5 179 -2 2
-19 -37 -39 -85z m19 -196 c5 -75 9 -89 25 -93 10 -3 16 -10 12 -16 -4 -6 -1
-7 7 -2 7 5 25 9 39 11 105 11 170 20 257 38 85 18 121 5 201 -71 13 -13 28
-23 32 -23 4 0 29 -16 54 -35 25 -19 49 -35 53 -35 4 0 15 -7 25 -16 24 -21
16 -42 -37 -97 -12 -12 -37 -49 -57 -82 -20 -33 -47 -73 -60 -89 l-24 -29
-241 2 c-231 2 -241 1 -251 -18 -12 -22 -14 -83 -5 -119 8 -27 23 -31 140 -36
50 -2 100 -8 111 -14 14 -8 23 -8 31 0 9 9 12 9 12 -1 0 -9 4 -10 13 -4 6 5
33 8 58 5 l47 -4 12 -81 c6 -45 16 -104 21 -132 24 -130 27 -194 7 -206 -11
-8 -131 -14 -166 -10 -8 1 -19 -2 -25 -7 -7 -5 -32 -10 -57 -11 -127 -6 -165
-12 -181 -29 -15 -15 -16 -35 -8 -197 5 -99 13 -225 17 -280 4 -55 7 -159 7
-230 l0 -130 -113 -3 -113 -3 18 25 c10 14 25 26 33 26 13 0 42 33 45 50 0 3
9 30 20 60 20 60 21 108 10 460 -8 233 -9 236 -95 225 -30 -4 -73 -8 -95 -9
-122 -9 -222 -18 -236 -22 -8 -2 -25 5 -37 16 -11 11 -25 20 -30 20 -12 0 -57
49 -50 55 2 3 16 6 30 7 14 1 25 9 26 18 1 8 -4 88 -10 178 -12 176 -18 192
-66 167 -17 -9 -20 -14 -10 -18 9 -4 7 -6 -4 -6 -10 -1 -18 -5 -18 -9 0 -5 -7
-17 -16 -28 -8 -10 -13 -12 -9 -4 4 8 -3 4 -14 -10 -11 -14 -21 -29 -21 -33 0
-5 -4 -6 -9 -3 -5 3 -12 -5 -15 -19 -4 -14 -12 -25 -19 -25 -20 0 -13 -54 6
-58 10 -2 14 -8 11 -13 -3 -6 3 -13 14 -16 11 -2 23 -14 25 -25 4 -13 10 -17
18 -12 8 4 10 3 5 -4 -4 -7 -1 -12 9 -12 11 0 15 -5 11 -16 -3 -9 -2 -12 4 -9
6 4 22 -3 35 -14 16 -12 22 -22 15 -26 -16 -10 -40 2 -40 20 0 8 -4 14 -8 12
-12 -3 -72 55 -66 65 3 4 -2 5 -10 2 -9 -3 -16 -1 -16 5 0 6 -7 11 -15 11 -8
0 -15 5 -15 10 0 6 -11 15 -25 20 -14 5 -25 16 -25 24 0 23 11 46 20 41 4 -2
25 16 46 42 22 26 75 83 119 128 63 65 85 82 105 80 179 -18 420 -26 441 -15
15 9 19 22 19 69 0 35 -5 63 -12 69 -8 6 -80 11 -173 12 -306 3 -290 1 -288
30 1 14 7 91 14 171 l13 146 43 10 c47 11 54 6 23 -17 -21 -15 -27 -54 -10
-65 6 -3 10 -19 10 -35 0 -46 47 -60 77 -22 11 13 14 12 22 -9 5 -13 10 -19
10 -12 1 6 10 9 21 6 11 -3 20 0 20 6 0 6 -9 11 -20 11 -15 0 -20 7 -20 24 0
14 -7 31 -15 40 -8 8 -15 23 -15 34 0 16 8 21 45 24 41 3 45 1 45 -19 0 -13
-4 -23 -10 -23 -14 0 -12 -76 3 -87 12 -11 93 -10 104 0 3 4 14 2 24 -4 13 -6
19 -6 19 0 0 6 24 9 54 9 34 -1 61 4 72 13 13 10 18 11 21 2 5 -13 90 -7 110
9 7 6 14 5 18 -2 4 -7 18 -10 31 -7 13 2 25 0 26 -4 2 -5 15 -3 29 5 15 7 39
11 53 9 27 -5 60 13 51 27 -3 5 2 29 10 53 22 65 14 77 -50 77 -30 0 -57 -5
-60 -10 -5 -8 -11 -8 -19 -1 -7 6 -15 9 -18 6 -3 -3 -52 -7 -109 -9 -57 -2
-113 -7 -123 -12 -11 -4 -17 -4 -14 2 4 5 -9 9 -28 9 -19 0 -34 -2 -34 -5 0
-3 -10 -7 -22 -7 -13 -1 -33 -5 -45 -8 -13 -3 -23 -1 -23 4 0 6 -11 6 -27 2
-41 -12 -197 -13 -159 -1 16 5 52 12 80 15 152 17 210 29 234 48 6 5 12 31 12
58 0 47 15 139 28 169 7 17 8 9 18 -124z m244 -225 l17 -51 -26 -1 c-14 0 -37
-2 -50 -5 -22 -4 -23 -2 -17 27 3 17 6 44 6 60 0 18 6 29 18 32 24 5 32 -4 52
-62z m69 52 c10 -17 10 -17 11 0 0 10 8 17 21 17 19 0 19 -1 5 -22 -9 -12 -16
-40 -16 -61 0 -34 -3 -38 -22 -35 -17 2 -24 11 -26 33 -2 16 -10 38 -18 49 -8
11 -14 24 -14 28 0 16 49 8 59 -9z m-198 -24 c7 -24 7 -24 8 4 1 18 6 27 17
27 12 0 15 -6 10 -22 -3 -13 -9 -40 -12 -60 -5 -28 -11 -38 -25 -38 -12 0 -19
7 -19 20 0 27 -18 25 -22 -2 -6 -41 -30 -25 -49 32 -10 30 -19 56 -19 58 0 1
11 2 25 2 18 0 25 -5 25 -19 0 -11 5 -23 11 -27 8 -5 10 1 5 19 -10 42 33 49
45 6z m-126 -3 c12 -18 14 -30 6 -44 -7 -13 -7 -22 2 -31 9 -9 8 -14 -3 -21
-11 -7 -19 -5 -27 7 -7 9 -13 12 -13 5 0 -7 -9 -12 -20 -12 -14 0 -21 9 -25
38 -11 67 -13 68 -14 10 -1 -49 -4 -58 -20 -58 -15 0 -20 12 -28 60 l-9 59 35
4 c89 9 100 8 116 -17z m-166 -28 c7 -24 15 -51 17 -60 4 -14 -1 -17 -28 -17
-18 1 -37 0 -43 -2 -16 -6 -17 3 -10 64 6 50 10 57 30 57 17 0 24 -9 34 -42z
m-181 -23 c-1 -56 -16 -79 -45 -68 -18 6 -16 23 2 23 21 0 19 17 -5 30 -37 20
-18 70 26 70 20 0 22 -5 22 -55z m-181 -853 c-1 -7 -43 24 -94 68 l-91 81 66
70 c36 39 73 80 81 92 15 20 17 10 28 -138 7 -88 12 -166 10 -173z m249 -824
c34 -68 62 -98 90 -98 13 0 26 -4 29 -10 5 -9 -254 -17 -330 -11 -56 5 -105
49 -57 52 9 1 31 3 47 6 29 5 66 6 112 2 32 -2 49 15 63 66 7 25 14 45 16 45
2 0 15 -24 30 -52z"/>
<path d="M2021 2331 c-13 -9 -15 -167 -1 -186 4 -5 13 -49 19 -97 15 -103 30
-122 66 -88 14 13 25 29 25 37 0 7 4 13 9 13 4 0 34 34 66 76 47 60 57 79 48
92 -12 20 -88 78 -120 91 -12 6 -26 18 -32 28 -6 10 -11 14 -11 10 0 -5 -13 1
-28 12 -16 11 -33 16 -41 12z m94 -75 c47 -35 94 -70 105 -77 18 -13 15 -19
-63 -116 -45 -56 -82 -101 -84 -100 -1 1 -11 72 -22 157 -12 85 -24 165 -26
178 -3 12 -3 22 -1 22 3 0 44 -29 91 -64z"/>
<path d="M1902 2124 c5 -6 -18 -11 -65 -13 -133 -5 -142 -6 -155 -14 -7 -5
-19 -4 -27 3 -10 8 -19 8 -33 1 -13 -7 -31 -7 -57 0 -21 6 -41 7 -44 2 -3 -4
-33 -10 -66 -12 -38 -2 -63 -8 -71 -18 -9 -14 -14 -14 -37 2 -22 14 -32 15
-63 5 -25 -9 -39 -9 -46 -2 -14 14 -70 3 -85 -17 -15 -19 -17 -61 -3 -61 5 0
13 -12 16 -27 4 -16 13 -36 22 -45 13 -15 17 -16 42 -3 22 11 34 12 59 2 25
-9 36 -9 58 5 24 13 33 14 65 3 20 -8 39 -11 42 -7 4 3 32 7 64 9 31 1 74 4
95 5 21 2 43 0 49 -3 6 -4 17 -1 25 7 10 10 20 11 40 3 20 -7 30 -6 44 7 13
12 19 13 19 4 0 -13 28 -12 140 6 54 8 60 16 59 74 0 38 -16 103 -18 76 -1 -5
-7 -3 -15 3 -11 9 -15 9 -18 -1 -4 -10 -9 -10 -23 2 -10 8 -16 10 -13 4z m20
-41 c17 -15 18 -15 18 0 0 10 7 17 15 17 12 0 15 -13 15 -60 0 -57 -1 -60 -19
-50 -11 5 -23 16 -28 22 -5 9 -9 5 -13 -10 -9 -42 -25 -28 -31 28 -3 30 -6 47
-7 38 -1 -10 -9 -18 -17 -18 -21 0 -19 -20 3 -20 15 -1 15 -2 -2 -15 -18 -14
-18 -15 -2 -15 31 0 11 -24 -22 -27 -31 -3 -32 -1 -33 35 -1 71 -14 80 -28 19
-17 -77 -34 -79 -60 -8 -12 32 -21 60 -21 62 0 2 11 5 25 5 18 2 25 -3 25 -17
0 -10 5 -19 10 -19 6 0 10 9 10 20 0 17 8 20 68 23 37 2 69 4 71 5 3 1 13 -5
23 -15z m-332 -28 c0 -17 -6 -25 -17 -26 -17 -1 -17 -2 0 -6 21 -5 23 -23 2
-23 -8 0 -15 -4 -15 -10 0 -5 7 -10 15 -10 8 0 15 -4 15 -9 0 -10 -57 -21 -65
-13 -3 3 -5 27 -5 54 0 29 -4 48 -11 48 -8 0 -9 -17 -4 -55 6 -51 5 -55 -14
-55 -12 0 -21 6 -21 15 0 8 -7 15 -15 15 -9 0 -12 -6 -9 -15 5 -11 -1 -15 -20
-15 -23 0 -26 4 -26 38 0 20 -3 47 -7 60 -5 21 -3 23 23 20 26 -3 29 -6 26
-35 -3 -24 1 -33 12 -33 11 0 13 8 9 34 l-5 35 53 4 c30 2 60 4 67 5 7 1 12
-9 12 -23z m87 -17 c6 -24 14 -50 17 -60 6 -14 0 -16 -44 -15 -51 2 -52 2 -46
31 3 15 6 41 6 57 0 25 4 29 28 29 25 0 30 -5 39 -42z m-319 -18 c6 -39 -7
-69 -34 -76 -67 -17 -90 97 -24 119 22 7 54 -17 58 -43z m-108 15 c0 -14 -4
-25 -10 -25 -5 0 -10 -15 -10 -34 0 -20 -6 -36 -14 -39 -20 -8 -26 1 -26 39 0
26 -4 32 -15 28 -11 -5 -15 1 -15 19 0 21 5 26 33 30 17 2 38 5 45 5 7 1 12
-9 12 -23z"/>
<path d="M1630 1994 c0 -8 5 -12 10 -9 6 4 8 11 5 16 -9 14 -15 11 -15 -7z"/>
<path d="M1300 1990 c0 -13 5 -20 13 -17 6 2 12 10 12 17 0 7 -6 15 -12 18 -8
2 -13 -5 -13 -18z"/>
<path d="M1205 1691 c3 -6 -19 -11 -52 -13 l-58 -3 -3 -67 c-2 -37 1 -76 7
-86 10 -18 26 -19 186 -11 33 1 81 2 108 1 42 -2 47 -5 47 -24 0 -17 -3 -19
-9 -9 -5 8 -11 9 -15 3 -3 -6 -35 -9 -70 -9 -35 1 -62 -1 -59 -5 2 -5 -1 -8
-6 -8 -16 0 -13 -53 4 -76 8 -10 15 -28 15 -39 0 -44 56 -61 92 -29 16 16 18
16 24 0 3 -9 12 -16 19 -16 7 0 16 -6 18 -12 4 -10 6 -10 6 0 1 6 7 12 14 12
21 0 67 24 67 35 0 5 7 -1 16 -14 16 -22 20 -23 129 -18 79 4 116 2 125 -6 10
-9 11 -9 6 0 -5 9 14 12 73 11 44 0 84 3 90 7 17 10 13 55 -5 55 -9 0 -12 5
-8 12 11 17 4 82 -9 90 -6 3 -49 6 -95 7 -47 0 -88 3 -91 8 -9 12 -34 15 -27
4 4 -6 -16 -10 -49 -10 -30 0 -59 -2 -65 -6 -5 -3 -10 -1 -10 4 0 6 5 11 12
11 6 0 8 3 5 6 -4 4 -13 1 -21 -5 -9 -8 -24 -10 -38 -6 -13 4 -20 4 -16 0 4
-5 0 -14 -9 -21 -14 -10 -23 -9 -47 3 -22 12 -26 17 -15 24 10 6 6 9 -15 9
-16 0 -27 3 -23 6 3 4 27 6 53 6 26 -1 54 4 61 10 9 7 17 7 28 -2 8 -7 24 -10
35 -7 12 3 34 2 51 -3 18 -5 27 -5 24 1 -6 8 9 13 29 10 37 -7 94 -7 117 -1
18 5 36 3 53 -6 15 -7 24 -9 21 -4 -4 6 -1 10 6 10 21 0 38 34 32 64 -4 20 -3
27 5 22 8 -5 10 -2 6 9 -4 8 -1 22 6 30 10 12 10 18 -1 31 -10 12 -28 15 -80
13 -37 -2 -70 -1 -73 2 -4 3 -23 3 -44 0 -20 -4 -66 -3 -102 0 -36 4 -66 3
-68 -1 -2 -5 -9 -7 -15 -5 -30 11 -97 13 -97 4 0 -6 -4 -7 -10 -4 -18 11 -51
14 -45 4 4 -5 -9 -8 -29 -7 -20 2 -36 6 -36 11 0 4 -5 7 -11 7 -5 0 -8 -4 -4
-9 3 -5 -7 -11 -22 -13 -46 -5 -123 3 -117 13 3 5 -2 9 -11 9 -9 0 -14 -4 -10
-9z m297 -111 c7 0 9 15 5 43 -6 41 -5 43 21 41 26 -1 27 -2 29 -67 1 -65 0
-67 -23 -67 -14 0 -24 6 -24 14 0 8 -7 17 -16 20 -12 4 -14 1 -9 -14 5 -16 2
-20 -18 -20 -21 0 -25 6 -31 46 -10 76 -9 82 22 86 25 3 27 0 30 -39 2 -24 8
-43 14 -43z m126 58 l11 -33 -3 33 c-2 29 0 32 25 32 24 0 28 -5 32 -32 l3
-33 8 33 c5 18 15 32 23 32 8 0 13 -6 10 -12 -2 -7 -12 -39 -21 -70 -19 -66
-40 -76 -55 -25 l-9 32 -7 -32 c-12 -54 -37 -42 -57 27 -23 76 -23 80 6 80 17
0 26 -8 34 -32z m206 -33 c9 -35 16 -66 16 -69 0 -2 -13 -1 -30 4 -21 6 -30 5
-31 -3 0 -8 -2 -8 -6 1 -4 10 -8 10 -19 1 -23 -19 -24 -8 -8 64 14 59 18 67
39 67 20 0 25 -9 39 -65z m87 43 l0 -23 11 23 c6 12 17 22 25 22 11 0 11 -5
-2 -30 -8 -16 -15 -45 -15 -65 0 -31 -3 -35 -25 -35 -21 0 -25 5 -25 29 0 17
-9 46 -21 65 l-21 36 36 0 c30 0 36 -3 37 -22z m-753 -28 c-2 -29 0 -40 10
-40 10 0 12 10 7 40 -7 40 -7 40 25 40 25 0 31 -3 26 -16 -3 -9 -6 -38 -6 -65
0 -42 -3 -49 -20 -49 -11 0 -20 7 -20 16 0 8 -4 13 -9 10 -5 -4 -12 0 -15 6
-4 7 -4 3 -2 -9 4 -20 0 -23 -25 -23 l-29 0 0 65 0 65 31 0 c30 0 31 -1 27
-40z m134 -25 c-4 -61 -5 -65 -28 -65 -23 0 -24 3 -24 65 0 64 0 65 28 65 l27
0 -3 -65z m110 40 c4 -19 1 -25 -12 -25 -10 0 -23 -7 -30 -16 -11 -12 -10 -18
3 -32 16 -15 17 -15 17 6 0 13 6 22 15 22 10 0 15 -10 15 -30 0 -28 -3 -30
-35 -30 -42 0 -75 29 -75 65 0 33 33 65 69 65 23 0 30 -5 33 -25z m92 -197
c35 -49 8 -118 -45 -118 -24 0 -33 6 -43 32 -15 34 -6 85 16 100 24 15 57 8
72 -14z m116 -23 c0 -27 5 -45 11 -45 8 0 10 15 7 45 -5 44 -5 45 24 45 l29 0
-3 -67 c-3 -62 -5 -68 -25 -71 -15 -2 -23 2 -23 11 0 8 -6 17 -14 20 -10 4
-12 0 -9 -14 4 -15 0 -19 -19 -19 -22 0 -26 5 -32 46 -11 86 -9 94 24 94 29 0
30 -2 30 -45z m230 -10 c0 -42 3 -55 15 -55 33 0 12 -18 -25 -22 l-40 -4 0 63
c0 35 -4 63 -10 63 -5 0 -10 -11 -10 -25 0 -18 -4 -23 -15 -19 -8 4 -15 1 -15
-5 0 -6 7 -11 15 -11 8 0 15 -4 15 -10 0 -5 -7 -10 -15 -10 -8 0 -15 -4 -15
-10 0 -5 9 -10 20 -10 38 0 10 -25 -30 -26 l-40 -1 0 68 0 69 75 0 75 0 0 -55z
m92 -1 c-5 -55 -4 -56 18 -49 16 5 21 4 18 -6 -3 -8 -22 -15 -45 -17 l-41 -3
-4 65 -3 66 31 0 31 0 -5 -56z m-542 21 c0 -16 -6 -25 -15 -25 -11 0 -15 -11
-15 -40 0 -36 -3 -40 -24 -40 -13 0 -24 6 -23 13 1 45 -5 67 -18 67 -9 0 -15
9 -15 25 0 24 3 25 55 25 52 0 55 -1 55 -25z"/>
<path d="M1776 1575 c-3 -9 0 -15 9 -15 16 0 20 16 6 24 -5 3 -11 -1 -15 -9z"/>
<path d="M1450 1375 c0 -17 5 -25 13 -22 6 2 12 12 12 22 0 10 -6 20 -12 23
-8 2 -13 -6 -13 -23z"/>
<path d="M1258 1693 c7 -3 16 -2 19 1 4 3 -2 6 -13 5 -11 0 -14 -3 -6 -6z"/>
<path d="M1325 1501 c-3 -5 -1 -12 4 -15 5 -3 11 1 15 9 6 16 -9 21 -19 6z"/>
<path d="M1804 1498 c10 -6 22 -6 26 -2 5 5 -3 10 -18 11 -22 1 -24 0 -8 -9z"/>
<path d="M1365 1490 c3 -5 10 -10 16 -10 5 0 9 5 9 10 0 6 -7 10 -16 10 -8 0
-12 -4 -9 -10z"/>
<path d="M1770 2190 c0 -5 5 -10 11 -10 5 0 7 5 4 10 -3 6 -8 10 -11 10 -2 0
-4 -4 -4 -10z"/>
<path d="M1522 2201 c4 -13 18 -16 19 -4 0 4 -5 9 -11 12 -7 2 -11 -2 -8 -8z"/>
<path d="M1356 2171 c-4 -7 -5 -15 -2 -18 9 -9 19 4 14 18 -4 11 -6 11 -12 0z"/>
<path d="M832 2686 c-15 -17 -24 -41 -28 -75 -5 -58 8 -91 36 -91 10 0 22 -5
25 -10 10 -15 -26 -25 -44 -12 -47 34 -96 52 -175 66 -47 8 -91 18 -96 21 -6
3 -10 2 -10 -4 0 -5 14 -18 30 -28 17 -9 30 -25 30 -34 0 -10 9 -21 20 -24 11
-4 18 -10 15 -15 -3 -5 3 -15 15 -22 11 -7 20 -18 20 -24 0 -15 23 -24 63 -24
l30 0 -23 -25 c-12 -13 -28 -35 -34 -47 -6 -13 -16 -23 -21 -23 -6 -1 -21 -7
-34 -14 -18 -10 -20 -15 -11 -21 7 -5 19 -6 26 -3 7 3 14 -5 16 -19 4 -22 4
-22 22 7 10 17 36 42 57 57 22 15 39 35 39 43 0 8 4 15 9 15 13 0 -5 -51 -35
-104 -16 -27 -24 -57 -24 -88 0 -36 -6 -53 -23 -70 -14 -14 -27 -42 -31 -66
-3 -23 -11 -42 -16 -42 -5 0 -15 -10 -21 -22 -10 -18 -8 -24 7 -35 22 -16 34
-17 34 -1 0 6 16 35 37 65 30 44 40 52 60 47 20 -5 23 -2 23 20 0 29 -2 28 57
17 74 -14 96 17 72 99 -9 29 -8 43 4 66 8 16 20 55 27 86 l11 58 30 -22 c47
-35 112 -30 174 13 35 25 51 43 53 62 4 34 -5 34 -43 -2 -19 -18 -46 -31 -72
-35 -38 -5 -46 -3 -75 24 -23 20 -28 30 -17 30 22 0 53 36 46 54 -3 8 1 17 10
20 8 4 13 13 9 21 -3 8 -1 17 5 20 5 4 9 12 8 18 -1 7 1 20 5 29 19 42 -4 34
-67 -24 -42 -40 -67 -71 -67 -84 0 -21 -26 -52 -35 -42 -7 7 36 88 47 88 18 0
-2 70 -29 101 -35 39 -106 41 -141 5z m123 -33 c24 -26 34 -63 17 -63 -4 0
-15 -21 -25 -46 -18 -48 -11 -74 18 -74 21 0 55 33 58 57 3 21 53 80 61 72 7
-7 -29 -77 -53 -103 -22 -23 -22 -25 -6 -50 10 -15 25 -31 34 -36 14 -8 14 -9
-1 -10 -10 0 -18 4 -18 9 0 5 -12 12 -27 16 -34 8 -45 -6 -63 -82 -8 -32 -20
-68 -28 -80 -9 -15 -12 -32 -7 -50 4 -16 9 -40 11 -55 3 -25 1 -28 -26 -28
-33 0 -35 2 -19 31 12 22 -3 49 -27 49 -19 0 -38 -38 -26 -53 7 -9 0 -19 -25
-37 -19 -14 -44 -33 -54 -42 -28 -26 -23 -1 6 34 18 22 25 41 25 74 0 59 0 57
14 74 19 22 43 92 39 113 -5 21 -36 22 -53 2 -7 -8 -17 -15 -22 -15 -5 0 -2 7
6 16 9 8 16 18 16 22 -1 19 -30 42 -51 42 -21 0 -68 38 -60 48 1 2 -5 9 -15
16 -9 7 -14 18 -10 24 9 15 113 -15 152 -45 26 -19 36 -22 58 -13 41 15 44 39
8 70 -27 23 -30 30 -26 65 9 76 70 100 119 48z m-85 -478 c0 -8 -7 -15 -15
-15 -16 0 -20 12 -8 23 11 12 23 8 23 -8z"/>
<path d="M2013 1089 c-67 -26 -147 -98 -181 -163 -23 -45 -27 -63 -28 -156 0
-59 -6 -115 -12 -127 -18 -33 -15 -62 13 -109 17 -30 35 -46 60 -54 37 -12 60
-42 51 -65 -8 -21 6 -26 21 -7 13 16 14 15 10 -5 -3 -13 1 -24 10 -27 21 -8
23 -8 23 8 0 8 5 18 11 22 8 5 10 -1 6 -18 -5 -19 -2 -28 9 -32 23 -9 24 -8
24 14 0 11 4 20 10 20 5 0 9 -10 7 -22 -1 -14 4 -23 16 -26 12 -2 17 3 17 17
0 12 5 21 11 21 6 0 8 -9 4 -20 -5 -15 -2 -20 14 -20 11 0 22 8 24 17 4 17 5
17 6 1 2 -26 18 -22 25 6 7 27 38 39 72 26 16 -6 38 -4 69 7 55 18 89 63 81
105 -4 19 5 43 28 83 44 72 60 141 52 218 -12 121 -82 224 -188 277 -53 26
-72 30 -137 29 -51 0 -93 -7 -128 -20z m255 -35 c15 -10 28 -17 30 -16 9 8 76
-70 103 -121 31 -57 33 -69 33 -152 0 -79 -4 -95 -27 -135 l-27 -45 0 51 c0
77 -34 108 -128 118 -84 9 -122 -18 -122 -84 0 -23 -4 -28 -20 -27 -24 2 -23
-1 -7 40 9 21 11 43 5 63 -10 41 -82 79 -149 79 -40 0 -51 -5 -74 -30 -14 -16
-29 -42 -32 -58 -3 -15 -10 -30 -16 -34 -6 -4 -8 26 -5 88 5 81 9 101 34 141
16 26 37 50 47 54 10 3 16 8 13 11 -3 3 14 19 38 34 82 55 238 66 304 23z
m-244 -270 c61 -21 75 -47 50 -99 -13 -29 -30 -43 -71 -62 -64 -30 -102 -27
-122 8 -18 32 -8 108 20 143 24 31 55 33 123 10z m301 -78 c21 -14 25 -24 25
-69 0 -63 -27 -113 -66 -123 -24 -6 -34 0 -76 44 -44 46 -48 55 -48 99 0 27 6
55 13 62 16 17 119 8 152 -13z m-441 -125 c16 -14 76 -10 120 8 38 15 41 10
17 -30 -39 -64 -24 -92 56 -105 51 -8 66 10 66 81 l0 54 44 -49 c28 -31 54
-50 71 -52 29 -4 72 10 72 24 0 4 6 8 14 8 9 0 13 -10 11 -29 -3 -36 -12 -51
-31 -51 -8 0 -14 -4 -14 -9 0 -15 -42 -21 -82 -12 -36 8 -70 -4 -90 -33 -4 -7
-14 -6 -30 1 -33 16 -117 35 -128 28 -5 -3 -16 7 -25 23 -10 15 -38 41 -64 57
-25 16 -51 36 -58 45 -18 24 -24 68 -11 96 l12 25 17 -34 c10 -18 24 -39 33
-46z m226 -36 c0 -74 -7 -88 -29 -61 -6 7 -22 11 -36 8 -14 -2 -25 0 -25 5 0
15 71 123 81 123 5 0 9 -34 9 -75z"/>
</g>
</svg>
